<svg width="40" height="40" viewBox="0 0 40 40" fill="none" xmlns="http://www.w3.org/2000/svg">
<g clip-path="url(#clip0_384_1293)">
<path d="M34 1H6C3.23858 1 1 3.23858 1 6V34C1 36.7614 3.23858 39 6 39H34C36.7614 39 39 36.7614 39 34V6C39 3.23858 36.7614 1 34 1Z" fill="white" stroke="black" stroke-width="2"/>
<path d="M8.016 30.736C7.424 30.736 6.904 30.688 6.456 30.592C6.008 30.496 5.616 30.264 5.28 29.896C4.96 29.528 4.8 28.96 4.8 28.192C4.8 27.12 5.12 25.68 5.76 23.872C6.416 22.064 7.272 20.248 8.328 18.424C7.528 18.472 6.896 18.592 6.432 18.784C5.968 18.976 5.664 19.272 5.52 19.672C5.584 19.672 5.648 19.752 5.712 19.912C5.792 20.072 5.832 20.24 5.832 20.416C5.832 20.704 5.704 20.936 5.448 21.112C5.192 21.272 4.872 21.352 4.488 21.352C4.04 21.352 3.68 21.232 3.408 20.992C3.136 20.752 3 20.408 3 19.96C3 19.416 3.208 18.92 3.624 18.472C4.056 18.024 4.648 17.672 5.4 17.416C6.152 17.144 6.984 17.008 7.896 17.008C8.232 17.008 8.648 17.032 9.144 17.08C10.456 15 11.84 13.304 13.296 11.992C14.768 10.664 16.168 10 17.496 10C18.264 10 18.896 10.112 19.392 10.336L15.624 28H12.168L14.016 19.288C13.424 19.016 12.88 18.816 12.384 18.688C11.888 18.56 11.36 18.472 10.8 18.424C9.888 20.392 9.136 22.408 8.544 24.472C7.968 26.52 7.68 28.16 7.68 29.392C7.68 30 7.792 30.448 8.016 30.736ZM15.624 11.704C14.936 12.072 14.216 12.76 13.464 13.768C12.728 14.76 12.008 15.968 11.304 17.392C12.456 17.616 13.432 17.896 14.232 18.232L15.624 11.704Z" fill="black"/>
<path d="M24.6952 11.68C23.6232 12.128 22.7912 12.8 22.1992 13.696C21.6232 14.592 21.3353 15.672 21.3353 16.936C21.3353 17.528 21.3913 17.944 21.5033 18.184C21.6152 18.408 21.6712 18.536 21.6712 18.568C20.8072 18.568 20.1592 18.392 19.7272 18.04C19.3112 17.672 19.1033 17.072 19.1033 16.24C19.1033 15.216 19.5192 14.224 20.3512 13.264C21.1992 12.288 22.2792 11.504 23.5912 10.912C24.9032 10.304 26.2153 10 27.5273 10C27.7513 10 28.0713 10.016 28.4873 10.048L26.9513 17.2H30.4792L32.0153 10.048H35.4712L31.6553 28H28.1993L30.1193 18.976H26.5912L24.6713 28H21.2153L24.6952 11.68Z" fill="black"/>
</g>
<defs>
<clipPath id="clip0_384_1293">
<rect width="40" height="40" fill="white"/>
</clipPath>
</defs>
</svg>
