<svg width="45" height="50" viewBox="0 0 45 50" fill="none" xmlns="http://www.w3.org/2000/svg">
<path d="M44.1483 0L40.1318 44.9948L22.0775 50L4.07302 45.0018L0.060791 0H44.1483Z" fill="#264DE4"/>
<path d="M36.6932 42.1297L40.1255 3.67957H22.1045V46.1742L36.6932 42.1297Z" fill="#2965F1"/>
<path d="M9.25879 20.3701L9.75347 25.8893H22.1046V20.3701H9.25879Z" fill="#EBEBEB"/>
<path d="M22.1045 9.19885H22.0854H8.26477L8.7665 14.7182H22.1045V9.19885Z" fill="#EBEBEB"/>
<path d="M22.1045 40.4465V34.7042L22.0803 34.7106L15.9334 33.0508L15.5405 28.6489H12.5536H10L10.7733 37.315L22.0791 40.4536L22.1045 40.4465Z" fill="#EBEBEB"/>
<path d="M28.8818 25.8893L28.2412 33.0474L22.0854 34.7088V40.451L33.4003 37.3151L33.4833 36.3826L34.7803 21.8521L34.9149 20.37L35.9113 9.19885H22.0854V14.7182H29.8627L29.3605 20.37H22.0854V25.8893H28.8818Z" fill="white"/>
</svg>
