<svg width="51" height="50" viewBox="0 0 51 50" fill="none" xmlns="http://www.w3.org/2000/svg">
<path d="M25.9296 0.504883C12.1242 0.504883 0.929535 11.6976 0.929535 25.505C0.929535 36.5509 8.09281 45.9219 18.0262 49.2277C19.2756 49.459 19.7344 48.6853 19.7344 48.025C19.7344 47.4289 19.711 45.4594 19.7004 43.3704C12.7452 44.8827 11.2776 40.4207 11.2776 40.4207C10.1404 37.531 8.50182 36.7628 8.50182 36.7628C6.23366 35.2111 8.67279 35.2429 8.67279 35.2429C11.1833 35.4193 12.5052 37.8192 12.5052 37.8192C14.7349 41.6413 18.3536 40.5362 19.7802 39.8976C20.0045 38.2816 20.6526 37.1789 21.3674 36.5546C15.8147 35.9223 9.97725 33.7786 9.97725 24.1993C9.97725 21.47 10.9539 19.2397 12.5532 17.489C12.2936 16.8592 11.438 14.3166 12.7954 10.8729C12.7954 10.8729 14.8947 10.201 19.6722 13.4356C21.6663 12.8815 23.805 12.6039 25.9296 12.5945C28.0543 12.6039 30.1946 12.8815 32.1925 13.4356C36.9643 10.201 39.0607 10.8729 39.0607 10.8729C40.4215 14.3166 39.5654 16.8592 39.3058 17.489C40.9087 19.2397 41.8787 21.4698 41.8787 24.1993C41.8787 33.8013 36.0303 35.9158 30.4634 36.5346C31.36 37.3104 32.159 38.832 32.159 41.1642C32.159 44.5092 32.13 47.2015 32.13 48.025C32.13 48.6902 32.58 49.4698 33.8474 49.2243C43.7753 45.9148 50.9295 36.5471 50.9295 25.505C50.9295 11.6976 39.7364 0.504883 25.9296 0.504883Z" fill="#161614"/>
<path d="M10.2929 36.118C10.238 36.2421 10.0423 36.2794 9.86447 36.1943C9.6831 36.1127 9.58115 35.9433 9.63997 35.8186C9.69389 35.6908 9.88957 35.6551 10.0705 35.741C10.2523 35.8224 10.3558 35.9933 10.2929 36.118ZM11.5226 37.2152C11.4034 37.3258 11.1703 37.2745 11.0121 37.0998C10.8486 36.9255 10.818 36.6925 10.9389 36.5802C11.0619 36.4698 11.288 36.5213 11.4519 36.6958C11.6154 36.8721 11.6472 37.1037 11.5225 37.2154L11.5226 37.2152ZM12.3663 38.6191C12.213 38.7256 11.9624 38.6258 11.8077 38.4034C11.6546 38.1813 11.6546 37.9146 11.8111 37.8078C11.9664 37.7009 12.213 37.797 12.3699 38.0176C12.5228 38.2436 12.5228 38.5103 12.3662 38.6193L12.3663 38.6191ZM13.793 40.2451C13.6559 40.3961 13.3642 40.3557 13.1504 40.1495C12.932 39.9479 12.871 39.6618 13.0085 39.5107C13.1471 39.3593 13.4406 39.4018 13.6559 39.6063C13.873 39.8075 13.9392 40.0957 13.7932 40.2451H13.793ZM15.6368 40.7941C15.5766 40.9898 15.2955 41.0788 15.0123 40.9957C14.7296 40.91 14.5445 40.6806 14.6016 40.4828C14.6604 40.2857 14.9427 40.193 15.228 40.282C15.5104 40.3673 15.6958 40.5949 15.637 40.7941H15.6368ZM17.7356 41.0269C17.7426 41.2331 17.5024 41.4041 17.2052 41.4078C16.9062 41.4143 16.6644 41.2475 16.6613 41.0447C16.6613 40.8365 16.896 40.6671 17.1948 40.6622C17.4921 40.6563 17.7356 40.822 17.7356 41.0269ZM19.7971 40.9479C19.8328 41.149 19.6261 41.3557 19.331 41.4106C19.0408 41.4635 18.7722 41.3394 18.7352 41.14C18.6991 40.9337 18.9097 40.7273 19.1993 40.6738C19.4949 40.6224 19.7594 40.7434 19.7971 40.9479Z" fill="#161614"/>
</svg>
