<svg width="51" height="50" viewBox="0 0 51 50" fill="none" xmlns="http://www.w3.org/2000/svg">
<path d="M25.9296 0.843018C12.1242 0.843018 0.929535 12.0358 0.929535 25.8431C0.929535 36.889 8.09281 46.26 18.0262 49.5658C19.2756 49.7972 19.7344 49.0235 19.7344 48.3631C19.7344 47.767 19.711 45.7975 19.7004 43.7086C12.7452 45.2209 11.2776 40.7589 11.2776 40.7589C10.1404 37.8692 8.50182 37.1009 8.50182 37.1009C6.23366 35.5492 8.67279 35.581 8.67279 35.581C11.1833 35.7575 12.5052 38.1574 12.5052 38.1574C14.7349 41.9794 18.3536 40.8743 19.7802 40.2357C20.0045 38.6197 20.6526 37.517 21.3674 36.8927C15.8147 36.2604 9.97725 34.1167 9.97725 24.5375C9.97725 21.8082 10.9539 19.5778 12.5532 17.8271C12.2936 17.1973 11.438 14.6547 12.7954 11.2111C12.7954 11.2111 14.8947 10.5391 19.6722 13.7737C21.6663 13.2196 23.805 12.942 25.9296 12.9326C28.0543 12.942 30.1946 13.2196 32.1925 13.7737C36.9643 10.5391 39.0607 11.2111 39.0607 11.2111C40.4215 14.6547 39.5654 17.1973 39.3058 17.8271C40.9087 19.5778 41.8787 21.808 41.8787 24.5375C41.8787 34.1395 36.0303 36.2539 30.4634 36.8727C31.36 37.6486 32.159 39.1701 32.159 41.5024C32.159 44.8473 32.13 47.5396 32.13 48.3631C32.13 49.0284 32.58 49.8079 33.8474 49.5625C43.7753 46.253 50.9295 36.8853 50.9295 25.8431C50.9295 12.0358 39.7364 0.843018 25.9296 0.843018Z" fill="white"/>
<path d="M10.2929 36.4562C10.238 36.5803 10.0423 36.6175 9.86447 36.5324C9.6831 36.4509 9.58115 36.2815 9.63997 36.1568C9.69389 36.0289 9.88957 35.9932 10.0705 36.0791C10.2523 36.1605 10.3558 36.3315 10.2929 36.4562ZM11.5226 37.5534C11.4034 37.664 11.1703 37.6126 11.0121 37.4379C10.8486 37.2636 10.818 37.0307 10.9389 36.9183C11.0619 36.8079 11.288 36.8595 11.4519 37.034C11.6154 37.2103 11.6472 37.4418 11.5225 37.5536L11.5226 37.5534ZM12.3663 38.9573C12.213 39.0637 11.9624 38.9639 11.8077 38.7416C11.6546 38.5194 11.6546 38.2528 11.8111 38.1459C11.9664 38.039 12.213 38.1351 12.3699 38.3557C12.5228 38.5818 12.5228 38.8484 12.3662 38.9574L12.3663 38.9573ZM13.793 40.5833C13.6559 40.7342 13.3642 40.6939 13.1504 40.4876C12.932 40.286 12.871 40 13.0085 39.8488C13.1471 39.6974 13.4406 39.74 13.6559 39.9445C13.873 40.1456 13.9392 40.4339 13.7932 40.5833H13.793ZM15.6368 41.1323C15.5766 41.328 15.2955 41.417 15.0123 41.3338C14.7296 41.2482 14.5445 41.0187 14.6016 40.8209C14.6604 40.6239 14.9427 40.5311 15.228 40.6201C15.5104 40.7054 15.6958 40.9331 15.637 41.1323H15.6368ZM17.7356 41.365C17.7426 41.5713 17.5024 41.7423 17.2052 41.746C16.9062 41.7524 16.6644 41.5856 16.6613 41.3829C16.6613 41.1746 16.896 41.0052 17.1948 41.0003C17.4921 40.9944 17.7356 41.1601 17.7356 41.365ZM19.7971 41.286C19.8328 41.4872 19.6261 41.6938 19.331 41.7487C19.0408 41.8017 18.7722 41.6775 18.7352 41.4781C18.6991 41.2719 18.9097 41.0654 19.1993 41.0119C19.4949 40.9605 19.7594 41.0815 19.7971 41.286Z" fill="white"/>
</svg>
