<svg width="51" height="51" viewBox="0 0 51 51" fill="none" xmlns="http://www.w3.org/2000/svg">
<path d="M50.9295 0.183105H0.929535V50.1831H50.9295V0.183105Z" fill="#F7DF1E"/>
<path d="M34.5168 39.2458C35.524 40.8903 36.8343 42.099 39.1517 42.099C41.0986 42.099 42.3422 41.126 42.3422 39.7815C42.3422 38.1704 41.0644 37.5998 38.9216 36.6625L37.747 36.1585C34.3565 34.7141 32.1041 32.9045 32.1041 29.0792C32.1041 25.5553 34.789 22.8728 38.9851 22.8728C41.9724 22.8728 44.12 23.9125 45.6676 26.6347L42.0089 28.9839C41.2033 27.5395 40.3343 26.9704 38.9851 26.9704C37.6089 26.9704 36.7367 27.8434 36.7367 28.9839C36.7367 30.3934 37.6097 30.9641 39.6256 31.8371L40.8002 32.3403C44.7922 34.0522 47.0462 35.7974 47.0462 39.7212C47.0462 43.9514 43.7232 46.2688 39.2605 46.2688C34.897 46.2688 32.0779 44.1895 30.6986 41.4641L34.5168 39.2458ZM17.9192 39.653C18.6573 40.9625 19.3287 42.0696 20.943 42.0696C22.4867 42.0696 23.4605 41.4657 23.4605 39.1172V23.1411H28.1589V39.1807C28.1589 44.0458 25.3065 46.2601 21.143 46.2601C17.3811 46.2601 15.2025 44.3133 14.0946 41.9684L17.9192 39.653Z" fill="black"/>
</svg>
