<svg width="24" height="51" viewBox="0 0 24 51" fill="none" xmlns="http://www.w3.org/2000/svg">
<path d="M11.7731 0.686035L13.1073 3.1921C13.4073 3.65456 13.7323 4.06391 14.1151 4.44513C15.2373 5.55337 16.2834 6.73618 17.2461 7.98549C19.5069 10.954 21.0318 14.2506 22.1208 17.816C22.7739 19.994 23.1285 22.2282 23.1551 24.4874C23.2644 31.2416 20.949 37.0411 16.2806 41.8611C15.5212 42.6254 14.7008 43.3267 13.8276 43.9578C13.3651 43.9578 13.1464 43.6031 12.9558 43.2766C12.6087 42.6711 12.3777 42.0061 12.2746 41.3158C12.1105 40.4987 12.0027 39.6816 12.0559 38.8379V38.4567C12.0184 38.3754 11.6106 0.878208 11.7731 0.686035Z" fill="#599636"/>
<path d="M11.7731 0.603311C11.7184 0.493944 11.6637 0.576751 11.609 0.629872C11.6356 1.17671 11.445 1.66417 11.1466 2.12976C10.8185 2.59223 10.3841 2.94689 9.9482 3.32811C7.52651 5.42483 5.62039 7.95746 4.09394 10.7901C2.06284 14.6023 1.01604 18.6879 0.719186 22.9892C0.583258 24.5406 1.20978 30.0152 1.6988 31.5948C3.03308 35.7882 5.42978 39.302 8.53424 42.3518C9.29669 43.0861 10.1123 43.7673 10.9559 44.422C11.2012 44.422 11.2278 44.2032 11.284 44.0407C11.3916 43.693 11.4736 43.338 11.5293 42.9783L12.0762 38.8942L11.7731 0.603311Z" fill="#6CAC48"/>
<path d="M13.1073 45.6173C13.162 44.9923 13.462 44.4736 13.7885 43.9565C13.4604 43.8205 13.2167 43.5503 13.0261 43.2487C12.8617 42.9632 12.7257 42.6623 12.6199 42.3504C12.2387 41.2067 12.1574 40.0068 12.048 38.8381V38.1304C11.9121 38.2397 11.884 39.1647 11.884 39.3022C11.8045 40.5373 11.6406 41.7656 11.3934 42.9784C11.3122 43.469 11.2575 43.958 10.9559 44.3939C10.9559 44.4486 10.9559 44.5033 10.9825 44.5846C11.4731 46.0282 11.6074 47.4984 11.6903 48.9967V49.5435C11.6903 50.1966 11.6637 50.0591 12.2058 50.2778C12.4246 50.3591 12.6683 50.3872 12.887 50.5497C13.0511 50.5497 13.0777 50.4138 13.0777 50.3044L12.9964 49.406V46.9C12.9699 46.4625 13.0511 46.0282 13.1058 45.6188L13.1073 45.6173Z" fill="#C2BFBF"/>
</svg>
