<svg width="51" height="51" viewBox="0 0 51 51" fill="none" xmlns="http://www.w3.org/2000/svg">
<path d="M46.9847 39.496C44.2643 39.4272 42.1559 39.7034 40.3875 40.4627C39.8774 40.6696 39.0611 40.6698 38.9931 41.3258C39.2652 41.6019 39.2992 42.0507 39.5373 42.4303C39.9458 43.1206 40.6594 44.0527 41.3056 44.5362C42.0196 45.0884 42.7341 45.6405 43.4819 46.1239C44.8083 46.9524 46.3047 47.4355 47.5969 48.2641C48.3453 48.747 49.093 49.3688 49.8412 49.8865C50.2153 50.1622 50.4532 50.6114 50.9295 50.7839V50.6805C50.6913 50.3696 50.6232 49.921 50.3854 49.5758C50.0457 49.2305 49.7052 48.9198 49.3651 48.5746C48.379 47.2286 47.1548 46.0548 45.8286 45.0884C44.7405 44.3289 42.3597 43.2934 41.9178 42.016C41.9178 42.016 41.8836 41.9817 41.8498 41.9472C42.5978 41.8781 43.4819 41.6019 44.1963 41.3948C45.3524 41.0839 46.4066 41.1531 47.5969 40.8424C48.1409 40.7043 48.6851 40.5317 49.229 40.3591V40.0486C48.6172 39.4272 48.1751 38.5988 47.5289 38.012C45.7946 36.4927 43.89 35.0087 41.9178 33.766C40.8635 33.0756 39.5031 32.6268 38.3809 32.0401C37.9732 31.8327 37.2928 31.7294 37.0549 31.3841C36.4426 30.6248 36.1025 29.6239 35.6605 28.7263C34.6746 26.8275 33.7221 24.722 32.8719 22.7201C32.2601 21.3737 31.886 20.0273 31.1377 18.7849C27.6351 12.9165 23.8263 9.36108 17.9774 5.87446C16.719 5.14967 15.2227 4.83897 13.6245 4.45941C12.7746 4.42469 11.9241 4.35585 11.0741 4.32112C10.5299 4.07946 9.98575 3.42373 9.50961 3.11302C7.57162 1.87019 2.57231 -0.822001 1.14408 2.73347C0.225804 4.97706 2.50449 7.18613 3.28633 8.32559C3.8649 9.11942 4.61273 10.0168 5.02085 10.9144C5.25892 11.5009 5.32675 12.1227 5.56482 12.7439C6.10918 14.2623 6.61894 15.9542 7.33335 17.3696C7.70746 18.0944 8.11539 18.8537 8.59153 19.5096C8.86361 19.8892 9.33956 20.062 9.44179 20.6832C8.96584 21.3737 8.93163 22.4094 8.65936 23.2722C7.43518 27.1729 7.91152 32.0056 9.64565 34.8706C10.1896 35.7332 11.482 37.6324 13.2163 36.9072C14.7468 36.286 14.4067 34.3184 14.8484 32.5924C14.9509 32.1778 14.8828 31.902 15.0867 31.6258V31.695C15.5628 32.6613 16.0388 33.5936 16.4809 34.5601C17.5352 36.2513 19.3714 38.012 20.9017 39.1857C21.7181 39.8067 22.3641 40.877 23.3844 41.2567V41.1529H23.3162C23.1121 40.8422 22.806 40.7043 22.5341 40.4625C21.9222 39.8415 21.2418 39.082 20.7658 38.3915C19.3378 36.4582 18.0792 34.3182 16.9571 32.1089C16.4131 31.0391 15.9368 29.8653 15.4948 28.7953C15.2906 28.3806 15.2906 27.7596 14.9507 27.5527C14.4405 28.312 13.6925 28.9679 13.3184 29.8999C12.6726 31.3841 12.6043 33.2137 12.3663 35.112C12.2302 35.1469 12.2981 35.112 12.23 35.1815C11.1421 34.9049 10.768 33.766 10.3597 32.7994C9.33936 30.3487 9.16931 26.4134 10.0538 23.5829C10.2918 22.858 11.3122 20.5798 10.904 19.8894C10.7 19.2335 10.0196 18.8537 9.64565 18.3361C9.20371 17.6801 8.72738 16.852 8.42148 16.1268C7.60524 14.1937 7.19711 12.0535 6.31304 10.1204C5.90492 9.22279 5.1911 8.29106 4.61273 7.46251C3.96673 6.53059 3.25252 5.87446 2.74236 4.76992C2.57251 4.39037 2.33424 3.76896 2.60632 3.35468C2.67434 3.0785 2.81019 2.97513 3.08246 2.90608C3.5246 2.52613 4.78297 3.00945 5.22472 3.21659C6.48309 3.73404 7.53721 4.21775 8.59153 4.94254C9.06748 5.28777 9.57763 5.9437 10.1896 6.11632H10.9038C11.9922 6.35778 13.2161 6.18536 14.2364 6.49587C16.039 7.08256 17.6711 7.94564 19.1335 8.87776C23.5885 11.7428 27.2608 15.8161 29.7435 20.6832C30.1516 21.4768 30.3215 22.2022 30.6956 23.0304C31.41 24.722 32.2941 26.448 33.0079 28.1049C33.7221 29.727 34.4021 31.3841 35.4224 32.7305C35.9326 33.4551 37.9728 33.8351 38.8911 34.2148C39.5713 34.5253 40.6256 34.8017 41.2376 35.1813C42.3938 35.9059 43.5499 36.7348 44.6382 37.5284C45.1824 37.9427 46.8825 38.8058 46.9847 39.496Z" fill="#00546B"/>
<path d="M12.2979 9.49878C11.7199 9.49878 11.312 9.56822 10.9038 9.67159V9.74064H10.9719C11.2441 10.293 11.7199 10.6728 12.0598 11.1559C12.3321 11.708 12.5699 12.2606 12.8422 12.813C12.876 12.7783 12.91 12.7439 12.91 12.7439C13.3864 12.3985 13.6243 11.8463 13.6243 11.0178C13.4202 10.7763 13.3862 10.5347 13.2161 10.293C13.0123 9.94758 12.5699 9.77516 12.2979 9.49878Z" fill="#00546B"/>
</svg>
