<svg width="51" height="51" viewBox="0 0 51 51" fill="none" xmlns="http://www.w3.org/2000/svg">
<path d="M46.9847 38.8342C44.2643 38.7653 42.1559 39.0415 40.3875 39.8008C39.8774 40.0078 39.0611 40.008 38.9931 40.6639C39.2652 40.9401 39.2992 41.3889 39.5373 41.7684C39.9458 42.4587 40.6594 43.3908 41.3056 43.8743C42.0196 44.4265 42.7341 44.9787 43.4819 45.462C44.8083 46.2905 46.3047 46.7737 47.5969 47.6022C48.3453 48.0851 49.093 48.7069 49.8412 49.2246C50.2153 49.5004 50.4532 49.9496 50.9295 50.122V50.0186C50.6913 49.7077 50.6232 49.2591 50.3854 48.9139C50.0457 48.5687 49.7052 48.2579 49.3651 47.9127C48.379 46.5667 47.1548 45.3929 45.8286 44.4265C44.7405 43.667 42.3597 42.6315 41.9178 41.3542C41.9178 41.3542 41.8836 41.3198 41.8498 41.2853C42.5978 41.2163 43.4819 40.9401 44.1963 40.7329C45.3524 40.422 46.4066 40.4913 47.5969 40.1806C48.1409 40.0425 48.6851 39.8699 49.229 39.6973V39.3867C48.6172 38.7653 48.1751 37.937 47.5289 37.3501C45.7946 35.8309 43.89 34.3468 41.9178 33.1042C40.8635 32.4137 39.5031 31.9649 38.3809 31.3782C37.9732 31.1709 37.2928 31.0675 37.0549 30.7223C36.4426 29.963 36.1025 28.962 35.6605 28.0644C34.6746 26.1656 33.7221 24.0601 32.8719 22.0582C32.2601 20.7118 31.886 19.3654 31.1377 18.123C27.6351 12.2547 23.8263 8.69921 17.9774 5.21259C16.719 4.48781 15.2227 4.1771 13.6245 3.79755C12.7746 3.76283 11.9241 3.69398 11.0741 3.65926C10.5299 3.4176 9.98575 2.76186 9.50961 2.45115C7.57162 1.20833 2.57231 -1.48387 1.14408 2.0716C0.225804 4.3152 2.50449 6.52427 3.28633 7.66372C3.8649 8.45755 4.61273 9.35495 5.02085 10.2525C5.25892 10.839 5.32675 11.4608 5.56482 12.0821C6.10918 13.6005 6.61894 15.2923 7.33335 16.7077C7.70746 17.4325 8.11539 18.1918 8.59153 18.8478C8.86361 19.2273 9.33956 19.4001 9.44179 20.0214C8.96584 20.7118 8.93163 21.7475 8.65936 22.6104C7.43518 26.5111 7.91152 31.3437 9.64565 34.2087C10.1896 35.0714 11.482 36.9705 13.2163 36.2454C14.7468 35.6241 14.4067 33.6565 14.8484 31.9306C14.9509 31.5159 14.8828 31.2401 15.0867 30.9639V31.0332C15.5628 31.9994 16.0388 32.9317 16.4809 33.8982C17.5352 35.5894 19.3714 37.3501 20.9017 38.5239C21.7181 39.1449 22.3641 40.2151 23.3844 40.5948V40.4911H23.3162C23.1121 40.1804 22.806 40.0425 22.5341 39.8006C21.9222 39.1796 21.2418 38.4201 20.7658 37.7296C19.3378 35.7964 18.0792 33.6563 16.9571 31.4471C16.4131 30.3772 15.9368 29.2035 15.4948 28.1335C15.2906 27.7188 15.2906 27.0978 14.9507 26.8908C14.4405 27.6501 13.6925 28.3061 13.3184 29.238C12.6726 30.7223 12.6043 32.5518 12.3663 34.4502C12.2302 34.4851 12.2981 34.4502 12.23 34.5196C11.1421 34.243 10.768 33.1042 10.3597 32.1375C9.33936 29.6868 9.16931 25.7516 10.0538 22.9211C10.2918 22.1961 11.3122 19.918 10.904 19.2275C10.7 18.5716 10.0196 18.1918 9.64565 17.6742C9.20371 17.0183 8.72738 16.1901 8.42148 15.4649C7.60524 13.5318 7.19711 11.3916 6.31304 9.45852C5.90492 8.56092 5.1911 7.6292 4.61273 6.80065C3.96673 5.86873 3.25252 5.21259 2.74236 4.10806C2.57251 3.7285 2.33424 3.10709 2.60632 2.69282C2.67434 2.41663 2.81019 2.31326 3.08246 2.24422C3.5246 1.86426 4.78297 2.34759 5.22472 2.55472C6.48309 3.07217 7.53721 3.55589 8.59153 4.28067C9.06748 4.6259 9.57763 5.28184 10.1896 5.45445H10.9038C11.9922 5.69591 13.2161 5.5235 14.2364 5.83401C16.039 6.4207 17.6711 7.28377 19.1335 8.21589C23.5885 11.0809 27.2608 15.1542 29.7435 20.0214C30.1516 20.815 30.3215 21.5404 30.6956 22.3685C31.41 24.0601 32.2941 25.7861 33.0079 27.443C33.7221 29.0652 34.4021 30.7223 35.4224 32.0687C35.9326 32.7933 37.9728 33.1732 38.8911 33.553C39.5713 33.8635 40.6256 34.1399 41.2376 34.5194C42.3938 35.244 43.5499 36.0729 44.6382 36.8666C45.1824 37.2808 46.8825 38.1439 46.9847 38.8342Z" fill="white"/>
<path d="M12.2979 8.83691C11.7199 8.83691 11.312 8.90636 10.9038 9.00973V9.07877H10.9719C11.2441 9.63114 11.7199 10.0109 12.0598 10.494C12.3321 11.0462 12.5699 11.5987 12.8422 12.1511C12.876 12.1164 12.91 12.0821 12.91 12.0821C13.3864 11.7366 13.6243 11.1845 13.6243 10.3559C13.4202 10.1145 13.3862 9.8728 13.2161 9.63114C13.0123 9.28571 12.5699 9.1133 12.2979 8.83691Z" fill="white"/>
</svg>
