<svg width="46" height="51" viewBox="0 0 46 51" fill="none" xmlns="http://www.w3.org/2000/svg">
<path d="M20.8824 1.39256C22.1222 0.682925 23.737 0.679719 24.9757 1.39256C31.2075 4.91385 37.4412 8.42962 43.6719 11.953C44.8439 12.6132 45.6278 13.9174 45.6158 15.2678V36.4532C45.6245 37.8595 44.7632 39.1949 43.5268 39.84C37.3155 43.3419 31.1074 46.8481 24.8971 50.35C23.6317 51.0735 21.9845 51.0177 20.7586 50.2349C18.8965 49.1554 17.0311 48.0813 15.1688 47.0028C14.7882 46.776 14.3593 46.5954 14.0905 46.2264C14.3281 45.9062 14.7528 45.8663 15.0979 45.7265C15.8752 45.4794 16.5891 45.0826 17.3032 44.6976C17.4838 44.574 17.7042 44.6214 17.8773 44.732C19.4697 45.645 21.048 46.5845 22.6457 47.4888C22.9865 47.6856 23.3317 47.4243 23.623 47.2619C29.7182 43.817 35.8209 40.3851 41.915 36.9392C42.1408 36.8305 42.2657 36.5909 42.2473 36.3435C42.2516 29.3549 42.2484 22.365 42.2495 15.3764C42.2753 15.0957 42.1129 14.8377 41.8591 14.7229C35.6693 11.237 29.4828 7.74581 23.2941 4.25906C23.1869 4.18535 23.0598 4.1458 22.9297 4.14561C22.7996 4.14541 22.6725 4.18459 22.565 4.25799C16.3763 7.74581 10.1908 11.2402 4.00213 14.7259C3.74926 14.8409 3.57955 15.0947 3.60965 15.3764C3.61072 22.365 3.60965 29.3549 3.60965 36.3446C3.59892 36.4653 3.62543 36.5863 3.6856 36.6915C3.74578 36.7967 3.83673 36.8809 3.94621 36.9328C5.5977 37.8693 7.25132 38.7992 8.90387 39.7325C9.83486 40.2336 10.9779 40.5313 12.0037 40.1474C12.9088 39.8228 13.5433 38.8991 13.526 37.938C13.5346 30.9902 13.5218 24.0413 13.5324 17.0945C13.5098 16.786 13.8024 16.5312 14.1023 16.5602C14.8958 16.5549 15.6904 16.5496 16.4839 16.5624C16.8151 16.5549 17.043 16.887 17.0021 17.1978C16.9989 24.1896 17.0106 31.1816 16.9967 38.1734C16.9989 40.0368 16.2333 42.0644 14.5097 42.9762C12.3863 44.0761 9.76185 43.8429 7.6641 42.7881C5.84807 41.8817 4.11503 40.812 2.33124 39.8409C1.09164 39.1993 0.234561 37.8586 0.243287 36.4534V15.2678C0.230287 13.8895 1.04534 12.5615 2.25377 11.911C8.46402 8.40629 14.6732 4.89889 20.8824 1.39256Z" fill="#8CC84B"/>
<path d="M26.3002 16.0678C29.0087 15.8935 31.9084 15.9645 34.3457 17.2989C36.2328 18.3214 37.279 20.4674 37.3123 22.5639C37.2596 22.8467 36.964 23.0027 36.694 22.9833C35.9081 22.9822 35.1221 22.994 34.3363 22.9779C34.0029 22.9907 33.8091 22.6834 33.7673 22.3887C33.5415 21.3856 32.9944 20.3921 32.0503 19.9082C30.6009 19.1826 28.9204 19.2191 27.34 19.2342C26.1862 19.2955 24.9456 19.3954 23.9681 20.0738C23.2177 20.5878 22.9897 21.6253 23.2576 22.4608C23.5101 23.0607 24.2026 23.2543 24.7693 23.4327C28.0334 24.2864 31.4924 24.2015 34.6942 25.325C36.0198 25.783 37.3165 26.6734 37.7703 28.0613C38.3638 29.9215 38.1036 32.145 36.7802 33.6383C35.7069 34.8672 34.1438 35.5361 32.5847 35.8994C30.5106 36.3618 28.3582 36.3736 26.2519 36.1682C24.2714 35.9424 22.2103 35.4221 20.6813 34.0726C19.3739 32.9374 18.7353 31.1686 18.7987 29.4613C18.8138 29.173 19.1009 28.972 19.3771 28.9957C20.1685 28.9893 20.9598 28.9871 21.7512 28.9967C22.0673 28.9741 22.3016 29.2473 22.3179 29.5452C22.4639 30.501 22.8231 31.5041 23.6565 32.0707C25.2648 33.1084 27.283 33.0373 29.1247 33.0663C30.6504 32.9987 32.3632 32.9782 33.6083 31.9697C34.2652 31.3945 34.4598 30.4322 34.2823 29.6043C34.09 28.9054 33.3588 28.5797 32.7309 28.3667C29.5086 27.3474 26.011 27.7173 22.8199 26.5646C21.5243 26.1067 20.2716 25.2411 19.7738 23.9102C19.0793 22.0265 19.3976 19.6965 20.8598 18.2535C22.2854 16.8182 24.3435 16.2655 26.3002 16.0677V16.0678Z" fill="#8CC84B"/>
</svg>
