<svg width="42" height="51" viewBox="0 0 42 51" fill="none" xmlns="http://www.w3.org/2000/svg">
<path fill-rule="evenodd" clip-rule="evenodd" d="M0.816466 34.5168C0.307796 33.7145 0.300111 32.6925 0.796656 31.8825L19.4925 1.38576C20.5324 -0.310458 23.0433 -0.162146 23.8763 1.64467L40.9558 38.6943C41.5895 40.069 40.86 41.6864 39.41 42.1214L12.8415 50.092C11.7726 50.4126 10.6208 49.9829 10.0232 49.0403L0.816466 34.5168ZM21.6496 10.3027C21.8297 9.40559 23.059 9.27623 23.422 10.1162L35.2033 37.3773C35.4249 37.8906 35.149 38.4826 34.6132 38.6424L16.2564 44.1222C15.5817 44.3235 14.9353 43.734 15.074 43.0435L21.6496 10.3027Z" fill="#2D3748"/>
</svg>
