<svg width="42" height="51" viewBox="0 0 42 51" fill="none" xmlns="http://www.w3.org/2000/svg">
<path fill-rule="evenodd" clip-rule="evenodd" d="M0.816466 34.8549C0.307796 34.0525 0.300111 33.0306 0.796656 32.2205L19.4925 1.72377C20.5324 0.0275542 23.0433 0.175867 23.8763 1.98269L40.9558 39.0323C41.5895 40.407 40.86 42.0244 39.41 42.4594L12.8415 50.43C11.7726 50.7506 10.6208 50.3209 10.0232 49.3783L0.816466 34.8549ZM21.6496 10.6408C21.8297 9.7436 23.059 9.61424 23.422 10.4542L35.2033 37.7154C35.4249 38.2287 35.149 38.8206 34.6132 38.9804L16.2564 44.4602C15.5817 44.6615 14.9353 44.072 15.074 43.3815L21.6496 10.6408Z" fill="white"/>
</svg>
