<svg width="50" height="51" viewBox="0 0 50 51" fill="none" xmlns="http://www.w3.org/2000/svg">
<path d="M24.9296 29.9152C27.3641 29.9152 29.3377 27.9416 29.3377 25.5071C29.3377 23.0725 27.3641 21.099 24.9296 21.099C22.495 21.099 20.5215 23.0725 20.5215 25.5071C20.5215 27.9416 22.495 29.9152 24.9296 29.9152Z" fill="#61DAFB"/>
<path d="M24.9296 34.5383C37.9929 34.5383 48.5829 30.4949 48.5829 25.5071C48.5829 20.5192 37.9929 16.4758 24.9296 16.4758C11.8662 16.4758 1.27625 20.5192 1.27625 25.5071C1.27625 30.4949 11.8662 34.5383 24.9296 34.5383Z" stroke="#61DAFB" stroke-width="2.5"/>
<path d="M17.1082 30.0227C23.6399 41.3359 32.4366 48.4853 36.7562 45.9914C41.0758 43.4975 39.2825 32.3046 32.7508 20.9914C26.2191 9.67821 17.4224 2.52877 13.1029 5.02268C8.78327 7.5166 10.5765 18.7095 17.1082 30.0227Z" stroke="#61DAFB" stroke-width="2.5"/>
<path d="M17.1083 20.9914C10.5766 32.3046 8.78331 43.4975 13.1029 45.9914C17.4225 48.4853 26.2192 41.3359 32.7509 30.0227C39.2825 18.7095 41.0758 7.51658 36.7562 5.02267C32.4366 2.52875 23.6399 9.6782 17.1083 20.9914Z" stroke="#61DAFB" stroke-width="2.5"/>
</svg>
