<svg width="51" height="31" viewBox="0 0 51 31" fill="none" xmlns="http://www.w3.org/2000/svg">
<path d="M25.9295 0.849182C19.2627 0.849182 15.0961 4.18168 13.4292 10.846C15.9295 7.51355 18.8463 6.26433 22.1794 7.09714C24.0813 7.57232 25.4406 8.95221 26.9455 10.479C29.3965 12.9662 32.2331 15.8448 38.4298 15.8448C45.0961 15.8448 49.2633 12.5123 50.9295 5.8473C48.4298 9.17979 45.5131 10.4296 42.1794 9.59682C40.278 9.12164 38.9188 7.74176 37.4138 6.21494C34.9629 3.72776 32.1256 0.849182 25.9295 0.849182ZM13.4292 15.8448C6.76297 15.8448 2.59578 19.1773 0.929535 25.8423C3.42922 22.5098 6.34594 21.2599 9.67969 22.0934C11.581 22.5692 12.9403 23.9484 14.4452 25.4746C16.8961 27.9618 19.7335 30.841 25.9295 30.841C32.5964 30.841 36.763 27.5085 38.4298 20.8435C35.9295 24.176 33.0128 25.4259 29.6797 24.5924C27.7777 24.1179 26.4185 22.7374 24.9135 21.2112C22.4626 18.724 19.6259 15.8448 13.4292 15.8448Z" fill="#06B6D4"/>
</svg>
