<svg width="51" height="51" viewBox="0 0 51 51" fill="none" xmlns="http://www.w3.org/2000/svg">
<path d="M0.929535 0.521118H50.9295V50.5211H0.929535V0.521118Z" fill="#017ACB"/>
<path d="M24.9374 19.0367H27.3358V23.1774H20.8514V41.5992L20.6796 41.6461C20.4452 41.7086 17.3592 41.7086 16.6952 41.6383L16.1639 41.5914V23.1774H9.67953V19.0367L11.7342 19.0133C12.8592 18.9977 15.7499 18.9977 18.1561 19.0133C20.5624 19.0289 23.6092 19.0367 24.9374 19.0367ZM43.2421 39.6461C42.289 40.6539 41.2655 41.2164 39.5624 41.6774C38.8202 41.8805 38.6952 41.8883 37.0233 41.8805C35.3515 41.8727 35.2186 41.8727 34.4061 41.6617C32.3046 41.1227 30.6093 40.068 29.453 38.5758C29.1249 38.1539 28.5858 37.2789 28.5858 37.1696C28.5858 37.1383 28.6639 37.068 28.7655 37.0211C28.8671 36.9742 29.078 36.8414 29.2499 36.7399C29.4218 36.6383 29.7343 36.4508 29.9452 36.3414C30.1561 36.2321 30.7655 35.8727 31.2968 35.5524C31.828 35.2321 32.3124 34.9742 32.3671 34.9742C32.4218 34.9742 32.5233 35.0836 32.6014 35.2164C33.0702 36.0055 34.164 37.0133 34.9374 37.3571C35.414 37.5602 36.4686 37.7867 36.9765 37.7867C37.4452 37.7867 38.3046 37.5836 38.7655 37.3727C39.2577 37.1461 39.5077 36.9196 39.8046 36.4664C40.0077 36.1461 40.0311 36.0602 40.0233 35.4508C40.0233 34.8883 39.9921 34.7321 39.8358 34.4742C39.3983 33.7555 38.8046 33.3805 36.3983 32.318C33.914 31.2164 32.7968 30.5602 31.8905 29.6774C31.2186 29.0211 31.0858 28.8414 30.6639 28.0211C30.1171 26.9664 30.0468 26.6227 30.0389 25.0524C30.0311 23.9508 30.0546 23.5914 30.1718 23.2164C30.3358 22.6539 30.8671 21.568 31.1093 21.2946C31.6093 20.7086 31.7889 20.5289 32.1405 20.2399C33.203 19.3649 34.8593 18.7867 36.4452 18.7321C36.6249 18.7321 37.2186 18.7633 37.7733 18.8024C39.3671 18.9352 40.453 19.3258 41.4999 20.1617C42.289 20.7867 43.4843 22.2555 43.3671 22.4508C43.289 22.568 40.1718 24.6461 39.9687 24.7086C39.8437 24.7477 39.7577 24.7008 39.5858 24.4977C38.5233 23.2242 38.0936 22.9508 37.0624 22.8883C36.328 22.8414 35.9374 22.9274 35.4452 23.2555C34.9296 23.5992 34.6796 24.1227 34.6796 24.8492C34.6874 25.9117 35.0936 26.4117 36.5936 27.1539C37.5624 27.6305 38.3905 28.0211 38.453 28.0211C38.5468 28.0211 40.5546 29.0211 41.078 29.3336C43.5155 30.7633 44.5077 32.2321 44.7655 34.7633C44.953 36.6696 44.414 38.4117 43.2421 39.6461Z" fill="white"/>
</svg>
